<svg xmlns="http://www.w3.org/2000/svg" viewBox="0 0 706 562" style="object-fit:cover" preserveAspectRatio="xMidYMid slice" width="100%" height="100%">
  <g class="lines" fill="none" stroke="#505050" paint-order="fill stroke markers" stroke-linecap="round" stroke-miterlimit="10">
    <path class="st0" d="M100.8 472.8l12 12v12"/>
    <path class="st0" d="M100.8 52.8l12 12 12 12 12 12 12 12 12 12 12 12 12 12 12 12h36l12 12 12 12 12 12 12 12h36l12 12 12 12 12 12 12 12 12 12v72"/>
    <path class="st0" d="M112.8 112.8l12 12v36"/>
    <path class="st0" d="M112.8 256.8l12 12h12"/>
    <path class="st0" d="M112.8 268.8l12 12 12 12 12 12v12"/>
    <path class="st0" d="M112.8 292.8l12 12h12"/>
    <path class="st0" d="M112.8 328.8l12 12 12 12h24l12-12"/>
    <path class="st0" d="M112.8 364.8l12 12 12 12 12 12 12 12 12 12 12 12 12 12"/>
    <path class="st0" d="M124.8 112.8l12 12v36l-12 12h-12l-12-12v-60"/>
    <path class="st0" d="M124.8 220.8v36"/>
    <path class="st0" d="M124.8 388.8l12 12 12 12 12 12 12 12 12 12 12 12 12 12h12l12 12v24"/>
    <path class="st0" d="M124.8 4.8v24l12 12 12 12"/>
    <path class="st0" d="M124.8 544.8h24"/>
    <path class="st0" d="M124.8 88.8l12 12 12 12 12 12v36l-12 12-12 12-12 12-12 12-12 12-12 12-12 12-12 12-12 12-12 12-12 12-12 12-12 12v36l12 12 12 12 12 12 12 12 12 12 12 12h12"/>
    <path class="st0" d="M136.8 16.8l12 12 12 12v12"/>
    <path class="st0" d="M136.8 244.8l12 12v12"/>
    <path class="st0" d="M136.8 316.8l12 12h12"/>
    <path class="st0" d="M136.8 484.8h12l12-12"/>
    <path class="st0" d="M148.8 376.8l12 12h12l12-12 12-12"/>
    <path class="st0" d="M148.8 4.8h12l12 12 12 12v12"/>
    <path class="st0" d="M16.8 100.8l12 12 12 12 12 12"/>
    <path class="st0" d="M16.8 172.8v24l12 12h12l12-12v-36l-12-12-12-12-12-12-12-12v-24"/>
    <path class="st0" d="M16.8 40.8l12 12 12 12 12 12h12l12-12"/>
    <path class="st0" d="M16.8 484.8h12l12-12 12-12 12-12 12-12h36l12 12h24l12 12 12 12v48"/>
    <path class="st0" d="M16.8 508.8l12 12v36"/>
    <path class="st0" d="M16.8 520.8v36"/>
    <path class="st0" d="M160.8 100.8l12 12 12 12h12"/>
    <path class="st0" d="M160.8 28.8l12 12v12"/>
    <path class="st0" d="M160.8 400.8l12 12 12 12"/>
    <path class="st0" d="M160.8 484.8v24"/>
    <path class="st0" d="M160.8 544.8h48"/>
    <path class="st0" d="M172.8 172.8v12l-12 12h-24l-12 12-12 12-12 12v60l12 12 12 12 12 12 12 12h12"/>
    <path class="st0" d="M172.8 304.8l12 12v12"/>
    <path class="st0" d="M172.8 4.8h36l12 12v12"/>
    <path class="st0" d="M184.8 100.8l12 12 12 12 12 12h36l12 12"/>
    <path class="st0" d="M184.8 16.8l12 12v24l-12 12h-36l-12-12-12-12-12-12-12-12-12-12"/>
    <path class="st0" d="M184.8 172.8v12l-12 12-12 12v108l12 12 12 12 12 12h72"/>
    <path class="st0" d="M184.8 304.8l12 12v24"/>
    <path class="st0" d="M184.8 388.8l12 12v36"/>
    <path class="st0" d="M184.8 484.8l12 12v12"/>
    <path class="st0" d="M196.8 16.8l12 12v24l-12 12-12 12h-36l-12-12-12-12-12-12-12-12-12-12-12-12"/>
    <path class="st0" d="M196.8 160.8h12l12 12 12 12 12 12 12 12 12 12 12 12v240l-12 12-12 12"/>
    <path class="st0" d="M196.8 196.8v12l-12 12"/>
    <path class="st0" d="M196.8 232.8l12 12 12 12 12 12v12"/>
    <path class="st0" d="M196.8 244.8l12 12v12"/>
    <path class="st0" d="M208.8 184.8v24"/>
    <path class="st0" d="M208.8 232.8l12 12h12"/>
    <path class="st0" d="M208.8 280.8l12 12h12l12-12 12-12v-12l-12-12-12-12-12-12h-24l-12 12v36l12 12 12 12 12 12"/>
    <path class="st0" d="M208.8 328.8l12 12h12"/>
    <path class="st0" d="M208.8 364.8h60"/>
    <path class="st0" d="M208.8 412.8l12 12 12 12 12 12 12 12 12 12"/>
    <path class="st0" d="M208.8 448.8l12 12 12 12 12 12v24"/>
    <path class="st0" d="M208.8 64.8h12l12-12 12-12 12-12 12-12h24"/>
    <path class="st0" d="M220.8 376.8l12 12h24"/>
    <path class="st0" d="M220.8 4.8l12 12h12l12-12h36"/>
    <path class="st0" d="M220.8 400.8h36"/>
    <path class="st0" d="M220.8 448.8l12 12 12 12 12 12"/>
    <path class="st0" d="M220.8 520.8h96"/>
    <path class="st0" d="M220.8 76.8h12l12 12 12 12"/>
    <path class="st0" d="M220.8 88.8l12 12 12 12h24l12 12"/>
    <path class="st0" d="M232.8 208.8l12 12 12 12h12"/>
    <path class="st0" d="M232.8 328.8l12 12h24"/>
    <path class="st0" d="M232.8 64.8l12 12 12 12 12 12 12 12h12l12-12v-96"/>
    <path class="st0" d="M244.8 172.8l12 12v12l12 12 12 12h36l12 12h12l12 12 12 12v84l12 12 12 12h36"/>
    <path class="st0" d="M244.8 532.8l12 12h12"/>
    <path class="st0" d="M256.8 376.8l12 12v24l-12 12-12 12"/>
    <path class="st0" d="M256.8 40.8h12l12-12"/>
    <path class="st0" d="M256.8 52.8h12l12-12 12-12"/>
    <path class="st0" d="M256.8 64.8l12 12 12 12 12 12"/>
    <path class="st0" d="M268.8 256.8v12l-12 12-12 12-12 12-12 12h-12l-12-12-12-12-12-12v-72l12-12 12-12 12-12"/>
    <path class="st0" d="M268.8 292.8v24"/>
    <path class="st0" d="M268.8 424.8v36"/>
    <path class="st0" d="M268.8 532.8h24"/>
    <path class="st0" d="M268.8 64.8h24"/>
    <path class="st0" d="M28.8 100.8l12 12h24"/>
    <path class="st0" d="M28.8 28.8l12 12 12 12v12"/>
    <path class="st0" d="M28.8 328.8v12l-12 12"/>
    <path class="st0" d="M28.8 496.8l12 12 12 12 12 12h156l12 12 12 12h48l12-12 12-12 12-12 12-12 12-12 12-12 12-12"/>
    <path class="st0" d="M280.8 208.8h36"/>
    <path class="st0" d="M280.8 496.8l12 12h24l12-12 12-12h12"/>
    <path class="st0" d="M280.8 544.8h12l12-12"/>
    <path class="st0" d="M292.8 148.8v12l-12 12h-12"/>
    <path class="st0" d="M292.8 232.8l12 12v12l-12 12v36l12 12h12"/>
    <path class="st0" d="M292.8 316.8v24"/>
    <path class="st0" d="M292.8 352.8h36l12 12 12 12 12 12v24l-12 12-12 12-12 12"/>
    <path class="st0" d="M292.8 436.8l12 12 12 12"/>
    <path class="st0" d="M292.8 460.8l12 12v12"/>
    <path class="st0" d="M292.8 484.8l12 12h12"/>
    <path class="st0" d="M304.8 136.8v48"/>
    <path class="st0" d="M304.8 232.8l12 12 12 12v24"/>
    <path class="st0" d="M304.8 268.8l12 12 12 12 12 12v36"/>
    <path class="st0" d="M304.8 280.8l12 12 12 12v12l-12 12"/>
    <path class="st0" d="M316.8 124.8l12 12 12 12 12 12"/>
    <path class="st0" d="M316.8 148.8l12 12 12 12 12 12v12"/>
    <path class="st0" d="M316.8 172.8l12 12v12l12 12h312"/>
    <path class="st0" d="M316.8 28.8v24"/>
    <path class="st0" d="M316.8 544.8l12 12h336"/>
    <path class="st0" d="M328.8 244.8l12 12 12 12v84l12 12 12 12 12 12h24l12-12"/>
    <path class="st0" d="M328.8 28.8l12 12v12l-12 12-12 12v24l-12 12-12 12-12 12h-12l-12-12h-36l-12-12-12-12-12-12h-36l-12-12-12-12-12-12-12-12-12-12-12-12-12-12h-12l-12 12"/>
    <path class="st0" d="M328.8 340.8l12 12 12 12 12 12 12 12 12 12 12 12"/>
    <path class="st0" d="M328.8 376.8l12 12h12"/>
    <path class="st0" d="M328.8 4.8l12 12 12 12 12 12"/>
    <path class="st0" d="M328.8 40.8v12l-12 12"/>
    <path class="st0" d="M328.8 76.8l12 12 12 12v12"/>
    <path class="st0" d="M340.8 268.8v24"/>
    <path class="st0" d="M340.8 28.8l12 12 12 12h12"/>
    <path class="st0" d="M340.8 400.8v12l-12 12h-12"/>
    <path class="st0" d="M340.8 64.8l12 12 12 12 12 12 12 12 12 12 12 12 12 12 12 12 12 12v12l-12 12h-60l-12-12v-36l-12-12-12-12-12-12h-12l-12 12-12 12-12 12-12 12h-12"/>
    <path class="st0" d="M352.8 220.8l12 12 12 12 12 12 12 12h12l12 12 12 12 12 12v72l-12 12-12 12-12 12-12 12-12 12-12 12-12 12-12 12h-12l-12-12-12-12-12-12-12-12v-24"/>
    <path class="st0" d="M352.8 400.8v12l-12 12-12 12h-12l-12-12v-36l12-12 12-12"/>
    <path class="st0" d="M364.8 112.8v24l12 12 12 12v24"/>
    <path class="st0" d="M364.8 4.8v24"/>
    <path class="st0" d="M364.8 508.8h12l12 12"/>
    <path class="st0" d="M376.8 136.8l12 12 12 12 12 12v12"/>
    <path class="st0" d="M376.8 16.8l12 12 12 12"/>
    <path class="st0" d="M376.8 28.8l12 12 12 12"/>
    <path class="st0" d="M376.8 340.8h24"/>
    <path class="st0" d="M376.8 40.8l12 12 12 12 12 12 12 12v24l12 12 12 12 12 12 12 12 12 12h60l12-12 12-12 12-12 12-12 12-12 12-12 12-12 12-12v-48l12-12"/>
    <path class="st0" d="M376.8 400.8l12 12v12l-12 12h-24l-12 12v12"/>
    <path class="st0" d="M376.8 460.8h12l12-12h12l12-12 12-12 12-12 12-12"/>
    <path class="st0" d="M376.8 496.8h36l12-12v-24l12-12"/>
    <path class="st0" d="M376.8 520.8v24"/>
    <path class="st0" d="M376.8 64.8l12 12 12 12 12 12v12"/>
    <path class="st0" d="M376.8 76.8l12 12 12 12v12l12 12 12 12 12 12 12 12 12 12h12l12 12 12 12"/>
    <path class="st0" d="M4.8 160.8h36"/>
    <path class="st0" d="M4.8 184.8v24l12 12h24l12-12 12-12"/>
    <path class="st0" d="M4.8 388.8l12 12 12 12 12 12"/>
    <path class="st0" d="M4.8 436.8h24"/>
    <path class="st0" d="M4.8 448.8h24l12-12 12-12v-12l-12-12-12-12-12-12-12-12"/>
    <path class="st0" d="M4.8 460.8l12 12h12l12-12"/>
    <path class="st0" d="M4.8 496.8v36"/>
    <path class="st0" d="M40.8 136.8l12 12 12 12 12 12 12 12v36l-12 12-12 12-12 12-12 12-12 12-12 12-12 12"/>
    <path class="st0" d="M40.8 244.8v12l-12 12-12 12h-12"/>
    <path class="st0" d="M40.8 340.8v12l-12 12"/>
    <path class="st0" d="M40.8 364.8l12 12 12 12 12 12 12 12 12 12h24l12 12"/>
    <path class="st0" d="M40.8 484.8l12 12v12l12 12h24"/>
    <path class="st0" d="M40.8 520.8l12 12 12 12 12 12h132l12-12"/>
    <path class="st0" d="M400.8 148.8l12 12h12"/>
    <path class="st0" d="M400.8 16.8l12 12v36"/>
    <path class="st0" d="M400.8 232.8h36l12 12 12 12 12 12 12 12 12 12 12 12 12 12 12 12 12 12 12 12 12 12 12 12 12 12 12 12 12 12v24"/>
    <path class="st0" d="M400.8 352.8h24"/>
    <path class="st0" d="M412.8 244.8l12 12 12 12 12 12 12 12 12 12 12 12 12 12 12 12 12 12 12 12 12 12 12 12 12 12 12 12 12 12 12 12 12 12 12 12v24l-12 12-12 12-12 12-12 12h-12l-12 12h-36"/>
    <path class="st0" d="M412.8 292.8h12l12 12v12l-12 12h-12l-12-12-12-12v-36"/>
    <path class="st0" d="M412.8 4.8h24"/>
    <path class="st0" d="M412.8 424.8h12l12-12v-12"/>
    <path class="st0" d="M412.8 520.8l12 12h12l12-12v-12l-12-12"/>
    <path class="st0" d="M424.8 16.8l12 12v84"/>
    <path class="st0" d="M424.8 220.8h60l12 12v24"/>
    <path class="st0" d="M424.8 28.8v48"/>
    <path class="st0" d="M436.8 256.8h12l12 12 12 12 12 12v12l12 12 12 12h12"/>
    <path class="st0" d="M436.8 328.8v48"/>
    <path class="st0" d="M448.8 196.8h36"/>
    <path class="st0" d="M448.8 448.8l12 12h12"/>
    <path class="st0" d="M448.8 496.8l12 12v12l-12 12-12 12h-36"/>
    <path class="st0" d="M448.8 544.8h24"/>
    <path class="st0" d="M460.8 100.8v24"/>
    <path class="st0" d="M460.8 16.8l12 12v12"/>
    <path class="st0" d="M460.8 388.8h60l12 12 12 12 12 12v48l-12 12-12 12-12 12-12 12h-24l-12-12-12-12-12-12h-12l-12 12-12 12-12 12-12 12v12"/>
    <path class="st0" d="M460.8 4.8l12 12 12 12v12"/>
    <path class="st0" d="M460.8 52.8h24l12-12 12-12 12-12v-12"/>
    <path class="st0" d="M460.8 532.8h12l12 12"/>
    <path class="st0" d="M472.8 232.8v24l12 12 12 12 12 12 12 12 12 12h36l12 12 12 12 12 12v12l12 12 12 12 12 12 12 12h12"/>
    <path class="st0" d="M472.8 340.8l12 12h12"/>
    <path class="st0" d="M472.8 352.8l12 12 12 12"/>
    <path class="st0" d="M472.8 412.8v12l-12 12"/>
    <path class="st0" d="M472.8 472.8v12l12 12 12 12h12l12-12 12-12 12-12v-48l-12-12-12-12h-48l-12 12-12 12-12 12-12 12-12 12h-12l-12 12-12 12-12 12-12 12-12 12-12 12"/>
    <path class="st0" d="M472.8 520.8l12 12 12 12h12l12-12 12-12 12-12 12-12 12-12 12-12 12-12h24"/>
    <path class="st0" d="M472.8 64.8l12 12v24"/>
    <path class="st0" d="M484.8 64.8l12 12 12 12 12 12 12 12v12l-12 12h-12l-12-12-12-12-12-12-12-12v-24"/>
    <path class="st0" d="M496.8 112.8l12 12h12"/>
    <path class="st0" d="M496.8 148.8l12 12h24l12-12 12-12h12"/>
    <path class="st0" d="M496.8 184.8h60l12-12 12-12"/>
    <path class="st0" d="M496.8 220.8l12 12v24l-12 12"/>
    <path class="st0" d="M496.8 364.8l12 12h12"/>
    <path class="st0" d="M496.8 412.8v36"/>
    <path class="st0" d="M496.8 460.8v24"/>
    <path class="st0" d="M496.8 532.8h12l12-12 12-12 12-12 12-12 12-12 12-12 12-12v-12l-12-12-12-12-12-12-12-12-12-12-12-12-12-12-12-12-12-12-12-12-12-12-12-12-12-12-12-12-12-12-12-12-12-12v-12"/>
    <path class="st0" d="M496.8 88.8l12 12 12 12"/>
    <path class="st0" d="M508.8 196.8h96l12-12 12-12 12-12 12-12 12-12v-12l12-12v-48l-12-12-12-12v-12l12-12 12-12h24"/>
    <path class="st0" d="M508.8 268.8l12 12 12 12 12 12h12"/>
    <path class="st0" d="M508.8 436.8l12 12 12 12v12l-12 12-12 12h-12l-12-12v-72"/>
    <path class="st0" d="M508.8 448.8l12 12v12"/>
    <path class="st0" d="M508.8 52.8l12 12h72"/>
    <path class="st0" d="M508.8 76.8l12 12h12l12-12h36"/>
    <path class="st0" d="M52.8 124.8h24"/>
    <path class="st0" d="M52.8 340.8h12l12-12"/>
    <path class="st0" d="M52.8 352.8l12 12 12 12 12 12 12 12"/>
    <path class="st0" d="M520.8 244.8l12 12h168"/>
    <path class="st0" d="M520.8 340.8l12 12 12 12 12 12h12l12 12 12 12 12 12"/>
    <path class="st0" d="M520.8 412.8l12 12v24"/>
    <path class="st0" d="M532.8 100.8l12 12h36l12-12 12-12v-84"/>
    <path class="st0" d="M532.8 220.8l12 12 12 12"/>
    <path class="st0" d="M532.8 28.8l12 12 12 12h36"/>
    <path class="st0" d="M544.8 220.8l12 12 12 12"/>
    <path class="st0" d="M544.8 268.8l12 12 12 12"/>
    <path class="st0" d="M544.8 280.8l12 12 12 12 12 12h96l12 12 12 12v48l-12 12-12 12-12 12-12 12-12 12v36l-12 12-12 12-12 12-12 12"/>
    <path class="st0" d="M544.8 328.8l12 12 12 12 12 12 12 12 12 12 12 12 12 12v36"/>
    <path class="st0" d="M556.8 268.8l12 12h12"/>
    <path class="st0" d="M556.8 4.8v36"/>
    <path class="st0" d="M556.8 88.8l12 12h12l12-12v-12"/>
    <path class="st0" d="M568.8 220.8l12 12v12"/>
    <path class="st0" d="M568.8 328.8l12 12 12 12"/>
    <path class="st0" d="M568.8 424.8l12 12v12l-12 12"/>
    <path class="st0" d="M568.8 544.8h48l12-12 12-12v-24"/>
    <path class="st0" d="M580.8 148.8l12 12 12 12h12l12-12 12-12 12-12v-12l12-12v-48l-12-12"/>
    <path class="st0" d="M580.8 268.8l12 12v24"/>
    <path class="st0" d="M580.8 484.8v24"/>
    <path class="st0" d="M592.8 148.8l12 12h12"/>
    <path class="st0" d="M592.8 220.8l12 12 12 12h48"/>
    <path class="st0" d="M592.8 364.8l12 12 12 12 12 12 12 12 12 12"/>
    <path class="st0" d="M592.8 484.8v24l-12 12h-12l-12-12"/>
    <path class="st0" d="M604.8 280.8l12 12h12l12-12 12-12"/>
    <path class="st0" d="M604.8 304.8h24l12-12 12-12 12-12h12l12 12v12"/>
    <path class="st0" d="M604.8 328.8l12 12h24l12-12"/>
    <path class="st0" d="M616.8 232.8h48"/>
    <path class="st0" d="M616.8 364.8l12 12 12 12 12 12h12l12-12 12-12v-36l-12-12h-12l-12 12-12 12h-24l-12-12-12-12"/>
    <path class="st0" d="M616.8 4.8l12 12v12"/>
    <path class="st0" d="M616.8 64.8v24l-12 12-12 12-12 12h-36l-12 12-12 12h-12l-12-12h-36l-12-12V4.8"/>
    <path class="st0" d="M64.8 136.8l12 12 12 12 12 12 12 12h12l12-12 12-12v-36l-12-12-12-12-12-12h-96l-12-12v-48l12-12 12-12h12"/>
    <path class="st0" d="M64.8 16.8l12 12v12l12 12"/>
    <path class="st0" d="M64.8 184.8l12 12v24l-12 12h-60"/>
    <path class="st0" d="M64.8 292.8l12 12h12"/>
    <path class="st0" d="M64.8 304.8l12 12 12 12 12 12h12"/>
    <path class="st0" d="M64.8 40.8v24"/>
    <path class="st0" d="M640.8 112.8v24"/>
    <path class="st0" d="M640.8 220.8h24"/>
    <path class="st0" d="M640.8 304.8h36l12 12 12 12"/>
    <path class="st0" d="M640.8 364.8h12l12-12 12-12"/>
    <path class="st0" d="M640.8 4.8h24"/>
    <path class="st0" d="M640.8 544.8h12l12-12"/>
    <path class="st0" d="M652.8 160.8h12l12-12v-24"/>
    <path class="st0" d="M652.8 196.8l12 12 12 12v24"/>
    <path class="st0" d="M652.8 448.8l12 12 12 12v12"/>
    <path class="st0" d="M652.8 472.8v12l12 12 12 12"/>
    <path class="st0" d="M652.8 496.8l12 12 12 12 12 12 12 12v12"/>
    <path class="st0" d="M652.8 508.8l12 12 12 12 12 12"/>
    <path class="st0" d="M652.8 64.8v48"/>
    <path class="st0" d="M664.8 172.8v24"/>
    <path class="st0" d="M664.8 280.8l12 12 12 12"/>
    <path class="st0" d="M664.8 544.8l12 12h12"/>
    <path class="st0" d="M676.8 16.8h24"/>
    <path class="st0" d="M676.8 160.8v48"/>
    <path class="st0" d="M676.8 364.8v12l-12 12h-12l-12-12"/>
    <path class="st0" d="M676.8 40.8l12 12v12"/>
    <path class="st0" d="M676.8 424.8h12l12-12v-12"/>
    <path class="st0" d="M676.8 436.8h12l12 12v84"/>
    <path class="st0" d="M676.8 460.8l12 12v48"/>
    <path class="st0" d="M688.8 268.8l12 12v36"/>
    <path class="st0" d="M688.8 28.8l12 12v24l-12 12v168"/>
    <path class="st0" d="M700.8 100.8v36"/>
    <path class="st0" d="M700.8 148.8v96"/>
    <path class="st0" d="M76.8 256.8v12l-12 12-12 12-12 12-12 12h-12"/>
    <path class="st0" d="M76.8 280.8l12 12 12 12 12 12"/>
    <path class="st0" d="M76.8 352.8l12 12 12 12 12 12"/>
    <path class="st0" d="M76.8 448.8h36l12 12v60"/>
    <path class="st0" d="M76.8 472.8l12 12 12 12 12 12v12"/>
    <path class="st0" d="M76.8 484.8v12l-12 12"/>
    <path class="st0" d="M76.8 52.8l12 12h12"/>
    <path class="st0" d="M88.8 124.8v24"/>
    <path class="st0" d="M88.8 340.8l12 12h24l12 12h36l12-12"/>
    <path class="st0" d="M88.8 376.8l12 12 12 12 12 12 12 12 12 12 12 12 12 12 12 12 12 12 12 12 12 12"/>
    <path class="st0" d="M88.8 496.8l12 12v12"/>
    <path class="st0" d="M88.8 544.8h24"/>
    <path class="st0" d="M88.8 76.8h24"/>
  </g>
  <g class="circles" fill="#1E1E1E" stroke="#505050" paint-order="fill stroke markers">
    <path class="st1" d="M1.2 160.8a3.6 3.6 0 117.2 0 3.6 3.6 0 01-7.2 0zm36 0a3.6 3.6 0 117.2 0 3.6 3.6 0 01-7.2 0z"/>
    <path class="st1" d="M1.2 184.8a3.6 3.6 0 117.2 0 3.6 3.6 0 01-7.2 0zm60 12a3.6 3.6 0 117.2 0 3.6 3.6 0 01-7.2 0z"/>
    <path class="st1" d="M1.2 388.8a3.6 3.6 0 117.2 0 3.6 3.6 0 01-7.2 0zm36 36a3.6 3.6 0 117.2 0 3.6 3.6 0 01-7.2 0z"/>
    <path class="st1" d="M1.2 436.8a3.6 3.6 0 117.2 0 3.6 3.6 0 01-7.2 0zm24 0a3.6 3.6 0 117.2 0 3.6 3.6 0 01-7.2 0z"/>
    <path class="st1" d="M1.2 448.8a3.6 3.6 0 117.2 0 3.6 3.6 0 01-7.2 0zm0-84a3.6 3.6 0 117.2 0 3.6 3.6 0 01-7.2 0z"/>
    <path class="st1" d="M1.2 460.8a3.6 3.6 0 117.2 0 3.6 3.6 0 01-7.2 0zm36 0a3.6 3.6 0 117.2 0 3.6 3.6 0 01-7.2 0z"/>
    <path class="st1" d="M1.2 496.8a3.6 3.6 0 117.2 0 3.6 3.6 0 01-7.2 0zm0 36a3.6 3.6 0 117.2 0 3.6 3.6 0 01-7.2 0z"/>
    <path class="st1" d="M109.2 112.8a3.6 3.6 0 117.2 0 3.6 3.6 0 01-7.2 0zm12 48a3.6 3.6 0 117.2 0 3.6 3.6 0 01-7.2 0z"/>
    <path class="st1" d="M109.2 256.8a3.6 3.6 0 117.2 0 3.6 3.6 0 01-7.2 0zm24 12a3.6 3.6 0 117.2 0 3.6 3.6 0 01-7.2 0z"/>
    <path class="st1" d="M109.2 268.8a3.6 3.6 0 117.2 0 3.6 3.6 0 01-7.2 0zm36 48a3.6 3.6 0 117.2 0 3.6 3.6 0 01-7.2 0z"/>
    <path class="st1" d="M109.2 292.8a3.6 3.6 0 117.2 0 3.6 3.6 0 01-7.2 0zm24 12a3.6 3.6 0 117.2 0 3.6 3.6 0 01-7.2 0z"/>
    <path class="st1" d="M109.2 328.8a3.6 3.6 0 117.2 0 3.6 3.6 0 01-7.2 0zm60 12a3.6 3.6 0 117.2 0 3.6 3.6 0 01-7.2 0z"/>
    <path class="st1" d="M109.2 364.8a3.6 3.6 0 117.2 0 3.6 3.6 0 01-7.2 0zm84 84a3.6 3.6 0 117.2 0 3.6 3.6 0 01-7.2 0z"/>
    <path class="st1" d="M121.2 112.8a3.6 3.6 0 117.2 0 3.6 3.6 0 01-7.2 0zm-24-12a3.6 3.6 0 117.2 0 3.6 3.6 0 01-7.2 0z"/>
    <path class="st1" d="M121.2 220.8a3.6 3.6 0 117.2 0 3.6 3.6 0 01-7.2 0zm0 36a3.6 3.6 0 117.2 0 3.6 3.6 0 01-7.2 0z"/>
    <path class="st1" d="M121.2 388.8a3.6 3.6 0 117.2 0 3.6 3.6 0 01-7.2 0zm108 120a3.6 3.6 0 117.2 0 3.6 3.6 0 01-7.2 0z"/>
    <path class="st1" d="M121.2 4.8a3.6 3.6 0 117.2 0 3.6 3.6 0 01-7.2 0zm24 48a3.6 3.6 0 117.2 0 3.6 3.6 0 01-7.2 0z"/>
    <path class="st1" d="M121.2 544.8a3.6 3.6 0 117.2 0 3.6 3.6 0 01-7.2 0zm24 0a3.6 3.6 0 117.2 0 3.6 3.6 0 01-7.2 0z"/>
    <path class="st1" d="M121.2 88.8a3.6 3.6 0 117.2 0 3.6 3.6 0 01-7.2 0zm-36 336a3.6 3.6 0 117.2 0 3.6 3.6 0 01-7.2 0z"/>
    <path class="st1" d="M13.2 100.8a3.6 3.6 0 117.2 0 3.6 3.6 0 01-7.2 0zm36 36a3.6 3.6 0 117.2 0 3.6 3.6 0 01-7.2 0z"/>
    <path class="st1" d="M13.2 172.8a3.6 3.6 0 117.2 0 3.6 3.6 0 01-7.2 0zm-12-84a3.6 3.6 0 117.2 0 3.6 3.6 0 01-7.2 0z"/>
    <path class="st1" d="M13.2 40.8a3.6 3.6 0 117.2 0 3.6 3.6 0 01-7.2 0zm60 24a3.6 3.6 0 117.2 0 3.6 3.6 0 01-7.2 0z"/>
    <path class="st1" d="M13.2 484.8a3.6 3.6 0 117.2 0 3.6 3.6 0 01-7.2 0zm156 36a3.6 3.6 0 117.2 0 3.6 3.6 0 01-7.2 0z"/>
    <path class="st1" d="M13.2 508.8a3.6 3.6 0 117.2 0 3.6 3.6 0 01-7.2 0zm12 48a3.6 3.6 0 117.2 0 3.6 3.6 0 01-7.2 0z"/>
    <path class="st1" d="M13.2 520.8a3.6 3.6 0 117.2 0 3.6 3.6 0 01-7.2 0zm0 36a3.6 3.6 0 117.2 0 3.6 3.6 0 01-7.2 0z"/>
    <path class="st1" d="M133.2 16.8a3.6 3.6 0 117.2 0 3.6 3.6 0 01-7.2 0zm24 36a3.6 3.6 0 117.2 0 3.6 3.6 0 01-7.2 0z"/>
    <path class="st1" d="M133.2 244.8a3.6 3.6 0 117.2 0 3.6 3.6 0 01-7.2 0zm12 24a3.6 3.6 0 117.2 0 3.6 3.6 0 01-7.2 0z"/>
    <path class="st1" d="M133.2 316.8a3.6 3.6 0 117.2 0 3.6 3.6 0 01-7.2 0zm24 12a3.6 3.6 0 117.2 0 3.6 3.6 0 01-7.2 0z"/>
    <path class="st1" d="M133.2 484.8a3.6 3.6 0 117.2 0 3.6 3.6 0 01-7.2 0zm24-12a3.6 3.6 0 117.2 0 3.6 3.6 0 01-7.2 0z"/>
    <path class="st1" d="M145.2 376.8a3.6 3.6 0 117.2 0 3.6 3.6 0 01-7.2 0zm48-12a3.6 3.6 0 117.2 0 3.6 3.6 0 01-7.2 0z"/>
    <path class="st1" d="M145.2 4.8a3.6 3.6 0 117.2 0 3.6 3.6 0 01-7.2 0zm36 36a3.6 3.6 0 117.2 0 3.6 3.6 0 01-7.2 0z"/>
    <path class="st1" d="M157.2 100.8a3.6 3.6 0 117.2 0 3.6 3.6 0 01-7.2 0zm36 24a3.6 3.6 0 117.2 0 3.6 3.6 0 01-7.2 0z"/>
    <path class="st1" d="M157.2 28.8a3.6 3.6 0 117.2 0 3.6 3.6 0 01-7.2 0zm12 24a3.6 3.6 0 117.2 0 3.6 3.6 0 01-7.2 0z"/>
    <path class="st1" d="M157.2 400.8a3.6 3.6 0 117.2 0 3.6 3.6 0 01-7.2 0zm24 24a3.6 3.6 0 117.2 0 3.6 3.6 0 01-7.2 0z"/>
    <path class="st1" d="M157.2 484.8a3.6 3.6 0 117.2 0 3.6 3.6 0 01-7.2 0zm0 24a3.6 3.6 0 117.2 0 3.6 3.6 0 01-7.2 0z"/>
    <path class="st1" d="M157.2 544.8a3.6 3.6 0 117.2 0 3.6 3.6 0 01-7.2 0zm48 0a3.6 3.6 0 117.2 0 3.6 3.6 0 01-7.2 0z"/>
    <path class="st1" d="M169.2 172.8a3.6 3.6 0 117.2 0 3.6 3.6 0 01-7.2 0zm-12 168a3.6 3.6 0 117.2 0 3.6 3.6 0 01-7.2 0z"/>
    <path class="st1" d="M169.2 304.8a3.6 3.6 0 117.2 0 3.6 3.6 0 01-7.2 0zm12 24a3.6 3.6 0 117.2 0 3.6 3.6 0 01-7.2 0z"/>
    <path class="st1" d="M169.2 4.8a3.6 3.6 0 117.2 0 3.6 3.6 0 01-7.2 0zm48 24a3.6 3.6 0 117.2 0 3.6 3.6 0 01-7.2 0z"/>
    <path class="st1" d="M181.2 100.8a3.6 3.6 0 117.2 0 3.6 3.6 0 01-7.2 0zm84 48a3.6 3.6 0 117.2 0 3.6 3.6 0 01-7.2 0z"/>
    <path class="st1" d="M181.2 16.8a3.6 3.6 0 117.2 0 3.6 3.6 0 01-7.2 0zm-96-12a3.6 3.6 0 117.2 0 3.6 3.6 0 01-7.2 0z"/>
    <path class="st1" d="M181.2 172.8a3.6 3.6 0 117.2 0 3.6 3.6 0 01-7.2 0zm84 180a3.6 3.6 0 117.2 0 3.6 3.6 0 01-7.2 0z"/>
    <path class="st1" d="M181.2 304.8a3.6 3.6 0 117.2 0 3.6 3.6 0 01-7.2 0zm12 36a3.6 3.6 0 117.2 0 3.6 3.6 0 01-7.2 0z"/>
    <path class="st1" d="M181.2 388.8a3.6 3.6 0 117.2 0 3.6 3.6 0 01-7.2 0zm12 48a3.6 3.6 0 117.2 0 3.6 3.6 0 01-7.2 0z"/>
    <path class="st1" d="M181.2 484.8a3.6 3.6 0 117.2 0 3.6 3.6 0 01-7.2 0zm12 24a3.6 3.6 0 117.2 0 3.6 3.6 0 01-7.2 0z"/>
    <path class="st1" d="M193.2 16.8a3.6 3.6 0 117.2 0 3.6 3.6 0 01-7.2 0zm-120-12a3.6 3.6 0 117.2 0 3.6 3.6 0 01-7.2 0z"/>
    <path class="st1" d="M193.2 160.8a3.6 3.6 0 117.2 0 3.6 3.6 0 01-7.2 0zm60 336a3.6 3.6 0 117.2 0 3.6 3.6 0 01-7.2 0z"/>
    <path class="st1" d="M193.2 196.8a3.6 3.6 0 117.2 0 3.6 3.6 0 01-7.2 0zm-12 24a3.6 3.6 0 117.2 0 3.6 3.6 0 01-7.2 0z"/>
    <path class="st1" d="M193.2 232.8a3.6 3.6 0 117.2 0 3.6 3.6 0 01-7.2 0zm36 48a3.6 3.6 0 117.2 0 3.6 3.6 0 01-7.2 0z"/>
    <path class="st1" d="M193.2 244.8a3.6 3.6 0 117.2 0 3.6 3.6 0 01-7.2 0zm12 24a3.6 3.6 0 117.2 0 3.6 3.6 0 01-7.2 0z"/>
    <path class="st1" d="M205.2 184.8a3.6 3.6 0 117.2 0 3.6 3.6 0 01-7.2 0zm0 24a3.6 3.6 0 117.2 0 3.6 3.6 0 01-7.2 0z"/>
    <path class="st1" d="M205.2 232.8a3.6 3.6 0 117.2 0 3.6 3.6 0 01-7.2 0zm24 12a3.6 3.6 0 117.2 0 3.6 3.6 0 01-7.2 0z"/>
    <path class="st1" d="M205.2 280.8a3.6 3.6 0 117.2 0 3.6 3.6 0 01-7.2 0zm12 24a3.6 3.6 0 117.2 0 3.6 3.6 0 01-7.2 0z"/>
    <path class="st1" d="M205.2 328.8a3.6 3.6 0 117.2 0 3.6 3.6 0 01-7.2 0zm24 12a3.6 3.6 0 117.2 0 3.6 3.6 0 01-7.2 0z"/>
    <path class="st1" d="M205.2 364.8a3.6 3.6 0 117.2 0 3.6 3.6 0 01-7.2 0zm60 0a3.6 3.6 0 117.2 0 3.6 3.6 0 01-7.2 0z"/>
    <path class="st1" d="M205.2 412.8a3.6 3.6 0 117.2 0 3.6 3.6 0 01-7.2 0zm60 60a3.6 3.6 0 117.2 0 3.6 3.6 0 01-7.2 0z"/>
    <path class="st1" d="M205.2 448.8a3.6 3.6 0 117.2 0 3.6 3.6 0 01-7.2 0zm36 60a3.6 3.6 0 117.2 0 3.6 3.6 0 01-7.2 0z"/>
    <path class="st1" d="M205.2 64.8a3.6 3.6 0 117.2 0 3.6 3.6 0 01-7.2 0zm84-48a3.6 3.6 0 117.2 0 3.6 3.6 0 01-7.2 0z"/>
    <path class="st1" d="M217.2 376.8a3.6 3.6 0 117.2 0 3.6 3.6 0 01-7.2 0zm36 12a3.6 3.6 0 117.2 0 3.6 3.6 0 01-7.2 0z"/>
    <path class="st1" d="M217.2 4.8a3.6 3.6 0 117.2 0 3.6 3.6 0 01-7.2 0zm72 0a3.6 3.6 0 117.2 0 3.6 3.6 0 01-7.2 0z"/>
    <path class="st1" d="M217.2 400.8a3.6 3.6 0 117.2 0 3.6 3.6 0 01-7.2 0zm36 0a3.6 3.6 0 117.2 0 3.6 3.6 0 01-7.2 0z"/>
    <path class="st1" d="M217.2 448.8a3.6 3.6 0 117.2 0 3.6 3.6 0 01-7.2 0zm36 36a3.6 3.6 0 117.2 0 3.6 3.6 0 01-7.2 0z"/>
    <path class="st1" d="M217.2 520.8a3.6 3.6 0 117.2 0 3.6 3.6 0 01-7.2 0zm96 0a3.6 3.6 0 117.2 0 3.6 3.6 0 01-7.2 0z"/>
    <path class="st1" d="M217.2 76.8a3.6 3.6 0 117.2 0 3.6 3.6 0 01-7.2 0zm36 24a3.6 3.6 0 117.2 0 3.6 3.6 0 01-7.2 0z"/>
    <path class="st1" d="M217.2 88.8a3.6 3.6 0 117.2 0 3.6 3.6 0 01-7.2 0zm60 36a3.6 3.6 0 117.2 0 3.6 3.6 0 01-7.2 0z"/>
    <path class="st1" d="M229.2 208.8a3.6 3.6 0 117.2 0 3.6 3.6 0 01-7.2 0zm36 24a3.6 3.6 0 117.2 0 3.6 3.6 0 01-7.2 0z"/>
    <path class="st1" d="M229.2 328.8a3.6 3.6 0 117.2 0 3.6 3.6 0 01-7.2 0zm36 12a3.6 3.6 0 117.2 0 3.6 3.6 0 01-7.2 0z"/>
    <path class="st1" d="M229.2 64.8a3.6 3.6 0 117.2 0 3.6 3.6 0 01-7.2 0zm72-60a3.6 3.6 0 117.2 0 3.6 3.6 0 01-7.2 0z"/>
    <path class="st1" d="M241.2 172.8a3.6 3.6 0 117.2 0 3.6 3.6 0 01-7.2 0zm180 192a3.6 3.6 0 117.2 0 3.6 3.6 0 01-7.2 0z"/>
    <path class="st1" d="M241.2 532.8a3.6 3.6 0 117.2 0 3.6 3.6 0 01-7.2 0zm24 12a3.6 3.6 0 117.2 0 3.6 3.6 0 01-7.2 0z"/>
    <path class="st1" d="M25.2 100.8a3.6 3.6 0 117.2 0 3.6 3.6 0 01-7.2 0zm36 12a3.6 3.6 0 117.2 0 3.6 3.6 0 01-7.2 0z"/>
    <path class="st1" d="M25.2 28.8a3.6 3.6 0 117.2 0 3.6 3.6 0 01-7.2 0zm24 36a3.6 3.6 0 117.2 0 3.6 3.6 0 01-7.2 0z"/>
    <path class="st1" d="M25.2 328.8a3.6 3.6 0 117.2 0 3.6 3.6 0 01-7.2 0zm-12 24a3.6 3.6 0 117.2 0 3.6 3.6 0 01-7.2 0z"/>
    <path class="st1" d="M25.2 496.8a3.6 3.6 0 117.2 0 3.6 3.6 0 01-7.2 0zm348-24a3.6 3.6 0 117.2 0 3.6 3.6 0 01-7.2 0z"/>
    <path class="st1" d="M253.2 376.8a3.6 3.6 0 117.2 0 3.6 3.6 0 01-7.2 0zm-12 60a3.6 3.6 0 117.2 0 3.6 3.6 0 01-7.2 0z"/>
    <path class="st1" d="M253.2 40.8a3.6 3.6 0 117.2 0 3.6 3.6 0 01-7.2 0zm24-12a3.6 3.6 0 117.2 0 3.6 3.6 0 01-7.2 0z"/>
    <path class="st1" d="M253.2 52.8a3.6 3.6 0 117.2 0 3.6 3.6 0 01-7.2 0zm36-24a3.6 3.6 0 117.2 0 3.6 3.6 0 01-7.2 0z"/>
    <path class="st1" d="M253.2 64.8a3.6 3.6 0 117.2 0 3.6 3.6 0 01-7.2 0zm36 36a3.6 3.6 0 117.2 0 3.6 3.6 0 01-7.2 0z"/>
    <path class="st1" d="M265.2 256.8a3.6 3.6 0 117.2 0 3.6 3.6 0 01-7.2 0zm-60-84a3.6 3.6 0 117.2 0 3.6 3.6 0 01-7.2 0z"/>
    <path class="st1" d="M265.2 292.8a3.6 3.6 0 117.2 0 3.6 3.6 0 01-7.2 0zm0 24a3.6 3.6 0 117.2 0 3.6 3.6 0 01-7.2 0z"/>
    <path class="st1" d="M265.2 424.8a3.6 3.6 0 117.2 0 3.6 3.6 0 01-7.2 0zm0 36a3.6 3.6 0 117.2 0 3.6 3.6 0 01-7.2 0z"/>
    <path class="st1" d="M265.2 532.8a3.6 3.6 0 117.2 0 3.6 3.6 0 01-7.2 0zm24 0a3.6 3.6 0 117.2 0 3.6 3.6 0 01-7.2 0z"/>
    <path class="st1" d="M265.2 64.8a3.6 3.6 0 117.2 0 3.6 3.6 0 01-7.2 0zm24 0a3.6 3.6 0 117.2 0 3.6 3.6 0 01-7.2 0z"/>
    <path class="st1" d="M277.2 208.8a3.6 3.6 0 117.2 0 3.6 3.6 0 01-7.2 0zm36 0a3.6 3.6 0 117.2 0 3.6 3.6 0 01-7.2 0z"/>
    <path class="st1" d="M277.2 496.8a3.6 3.6 0 117.2 0 3.6 3.6 0 01-7.2 0zm72-12a3.6 3.6 0 117.2 0 3.6 3.6 0 01-7.2 0z"/>
    <path class="st1" d="M277.2 544.8a3.6 3.6 0 117.2 0 3.6 3.6 0 01-7.2 0zm24-12a3.6 3.6 0 117.2 0 3.6 3.6 0 01-7.2 0z"/>
    <path class="st1" d="M289.2 148.8a3.6 3.6 0 117.2 0 3.6 3.6 0 01-7.2 0zm-24 24a3.6 3.6 0 117.2 0 3.6 3.6 0 01-7.2 0z"/>
    <path class="st1" d="M289.2 232.8a3.6 3.6 0 117.2 0 3.6 3.6 0 01-7.2 0zm24 84a3.6 3.6 0 117.2 0 3.6 3.6 0 01-7.2 0z"/>
    <path class="st1" d="M289.2 316.8a3.6 3.6 0 117.2 0 3.6 3.6 0 01-7.2 0zm0 24a3.6 3.6 0 117.2 0 3.6 3.6 0 01-7.2 0z"/>
    <path class="st1" d="M289.2 352.8a3.6 3.6 0 117.2 0 3.6 3.6 0 01-7.2 0zm36 96a3.6 3.6 0 117.2 0 3.6 3.6 0 01-7.2 0z"/>
    <path class="st1" d="M289.2 436.8a3.6 3.6 0 117.2 0 3.6 3.6 0 01-7.2 0zm24 24a3.6 3.6 0 117.2 0 3.6 3.6 0 01-7.2 0z"/>
    <path class="st1" d="M289.2 460.8a3.6 3.6 0 117.2 0 3.6 3.6 0 01-7.2 0zm12 24a3.6 3.6 0 117.2 0 3.6 3.6 0 01-7.2 0z"/>
    <path class="st1" d="M289.2 484.8a3.6 3.6 0 117.2 0 3.6 3.6 0 01-7.2 0zm24 12a3.6 3.6 0 117.2 0 3.6 3.6 0 01-7.2 0z"/>
    <path class="st1" d="M301.2 136.8a3.6 3.6 0 117.2 0 3.6 3.6 0 01-7.2 0zm0 48a3.6 3.6 0 117.2 0 3.6 3.6 0 01-7.2 0z"/>
    <path class="st1" d="M301.2 232.8a3.6 3.6 0 117.2 0 3.6 3.6 0 01-7.2 0zm24 48a3.6 3.6 0 117.2 0 3.6 3.6 0 01-7.2 0z"/>
    <path class="st1" d="M301.2 268.8a3.6 3.6 0 117.2 0 3.6 3.6 0 01-7.2 0zm36 72a3.6 3.6 0 117.2 0 3.6 3.6 0 01-7.2 0z"/>
    <path class="st1" d="M301.2 280.8a3.6 3.6 0 117.2 0 3.6 3.6 0 01-7.2 0zm12 48a3.6 3.6 0 117.2 0 3.6 3.6 0 01-7.2 0z"/>
    <path class="st1" d="M313.2 124.8a3.6 3.6 0 117.2 0 3.6 3.6 0 01-7.2 0zm36 36a3.6 3.6 0 117.2 0 3.6 3.6 0 01-7.2 0z"/>
    <path class="st1" d="M313.2 148.8a3.6 3.6 0 117.2 0 3.6 3.6 0 01-7.2 0zm36 48a3.6 3.6 0 117.2 0 3.6 3.6 0 01-7.2 0z"/>
    <path class="st1" d="M313.2 172.8a3.6 3.6 0 117.2 0 3.6 3.6 0 01-7.2 0zm336 36a3.6 3.6 0 117.2 0 3.6 3.6 0 01-7.2 0z"/>
    <path class="st1" d="M313.2 28.8a3.6 3.6 0 117.2 0 3.6 3.6 0 01-7.2 0zm0 24a3.6 3.6 0 117.2 0 3.6 3.6 0 01-7.2 0z"/>
    <path class="st1" d="M313.2 544.8a3.6 3.6 0 117.2 0 3.6 3.6 0 01-7.2 0zm348 12a3.6 3.6 0 117.2 0 3.6 3.6 0 01-7.2 0z"/>
    <path class="st1" d="M325.2 244.8a3.6 3.6 0 117.2 0 3.6 3.6 0 01-7.2 0zm96 132a3.6 3.6 0 117.2 0 3.6 3.6 0 01-7.2 0z"/>
    <path class="st1" d="M325.2 28.8a3.6 3.6 0 117.2 0 3.6 3.6 0 01-7.2 0zm-288-12a3.6 3.6 0 117.2 0 3.6 3.6 0 01-7.2 0z"/>
    <path class="st1" d="M325.2 340.8a3.6 3.6 0 117.2 0 3.6 3.6 0 01-7.2 0zm72 72a3.6 3.6 0 117.2 0 3.6 3.6 0 01-7.2 0z"/>
    <path class="st1" d="M325.2 376.8a3.6 3.6 0 117.2 0 3.6 3.6 0 01-7.2 0zm24 12a3.6 3.6 0 117.2 0 3.6 3.6 0 01-7.2 0z"/>
    <path class="st1" d="M325.2 4.8a3.6 3.6 0 117.2 0 3.6 3.6 0 01-7.2 0zm36 36a3.6 3.6 0 117.2 0 3.6 3.6 0 01-7.2 0z"/>
    <path class="st1" d="M325.2 40.8a3.6 3.6 0 117.2 0 3.6 3.6 0 01-7.2 0zm-12 24a3.6 3.6 0 117.2 0 3.6 3.6 0 01-7.2 0z"/>
    <path class="st1" d="M325.2 76.8a3.6 3.6 0 117.2 0 3.6 3.6 0 01-7.2 0zm24 36a3.6 3.6 0 117.2 0 3.6 3.6 0 01-7.2 0z"/>
    <path class="st1" d="M337.2 268.8a3.6 3.6 0 117.2 0 3.6 3.6 0 01-7.2 0zm0 24a3.6 3.6 0 117.2 0 3.6 3.6 0 01-7.2 0z"/>
    <path class="st1" d="M337.2 28.8a3.6 3.6 0 117.2 0 3.6 3.6 0 01-7.2 0zm36 24a3.6 3.6 0 117.2 0 3.6 3.6 0 01-7.2 0z"/>
    <path class="st1" d="M337.2 400.8a3.6 3.6 0 117.2 0 3.6 3.6 0 01-7.2 0zm-24 24a3.6 3.6 0 117.2 0 3.6 3.6 0 01-7.2 0z"/>
    <path class="st1" d="M337.2 64.8a3.6 3.6 0 117.2 0 3.6 3.6 0 01-7.2 0zm-84 96a3.6 3.6 0 117.2 0 3.6 3.6 0 01-7.2 0z"/>
    <path class="st1" d="M349.2 220.8a3.6 3.6 0 117.2 0 3.6 3.6 0 01-7.2 0zm-60 180a3.6 3.6 0 117.2 0 3.6 3.6 0 01-7.2 0z"/>
    <path class="st1" d="M349.2 400.8a3.6 3.6 0 117.2 0 3.6 3.6 0 01-7.2 0zm-24-36a3.6 3.6 0 117.2 0 3.6 3.6 0 01-7.2 0z"/>
    <path class="st1" d="M361.2 112.8a3.6 3.6 0 117.2 0 3.6 3.6 0 01-7.2 0zm24 72a3.6 3.6 0 117.2 0 3.6 3.6 0 01-7.2 0z"/>
    <path class="st1" d="M361.2 4.8a3.6 3.6 0 117.2 0 3.6 3.6 0 01-7.2 0zm0 24a3.6 3.6 0 117.2 0 3.6 3.6 0 01-7.2 0z"/>
    <path class="st1" d="M361.2 508.8a3.6 3.6 0 117.2 0 3.6 3.6 0 01-7.2 0zm24 12a3.6 3.6 0 117.2 0 3.6 3.6 0 01-7.2 0z"/>
    <path class="st1" d="M37.2 136.8a3.6 3.6 0 117.2 0 3.6 3.6 0 01-7.2 0zm-36 168a3.6 3.6 0 117.2 0 3.6 3.6 0 01-7.2 0z"/>
    <path class="st1" d="M37.2 244.8a3.6 3.6 0 117.2 0 3.6 3.6 0 01-7.2 0zm-36 36a3.6 3.6 0 117.2 0 3.6 3.6 0 01-7.2 0z"/>
    <path class="st1" d="M37.2 340.8a3.6 3.6 0 117.2 0 3.6 3.6 0 01-7.2 0zm-12 24a3.6 3.6 0 117.2 0 3.6 3.6 0 01-7.2 0z"/>
    <path class="st1" d="M37.2 364.8a3.6 3.6 0 117.2 0 3.6 3.6 0 01-7.2 0zm96 72a3.6 3.6 0 117.2 0 3.6 3.6 0 01-7.2 0z"/>
    <path class="st1" d="M37.2 484.8a3.6 3.6 0 117.2 0 3.6 3.6 0 01-7.2 0zm48 36a3.6 3.6 0 117.2 0 3.6 3.6 0 01-7.2 0z"/>
    <path class="st1" d="M37.2 520.8a3.6 3.6 0 117.2 0 3.6 3.6 0 01-7.2 0zm180 24a3.6 3.6 0 117.2 0 3.6 3.6 0 01-7.2 0z"/>
    <path class="st1" d="M373.2 136.8a3.6 3.6 0 117.2 0 3.6 3.6 0 01-7.2 0zm36 48a3.6 3.6 0 117.2 0 3.6 3.6 0 01-7.2 0z"/>
    <path class="st1" d="M373.2 16.8a3.6 3.6 0 117.2 0 3.6 3.6 0 01-7.2 0zm24 24a3.6 3.6 0 117.2 0 3.6 3.6 0 01-7.2 0z"/>
    <path class="st1" d="M373.2 28.8a3.6 3.6 0 117.2 0 3.6 3.6 0 01-7.2 0zm24 24a3.6 3.6 0 117.2 0 3.6 3.6 0 01-7.2 0z"/>
    <path class="st1" d="M373.2 340.8a3.6 3.6 0 117.2 0 3.6 3.6 0 01-7.2 0zm24 0a3.6 3.6 0 117.2 0 3.6 3.6 0 01-7.2 0z"/>
    <path class="st1" d="M373.2 40.8a3.6 3.6 0 117.2 0 3.6 3.6 0 01-7.2 0zm276-24a3.6 3.6 0 117.2 0 3.6 3.6 0 01-7.2 0z"/>
    <path class="st1" d="M373.2 400.8a3.6 3.6 0 117.2 0 3.6 3.6 0 01-7.2 0zm-36 60a3.6 3.6 0 117.2 0 3.6 3.6 0 01-7.2 0z"/>
    <path class="st1" d="M373.2 460.8a3.6 3.6 0 117.2 0 3.6 3.6 0 01-7.2 0zm84-60a3.6 3.6 0 117.2 0 3.6 3.6 0 01-7.2 0z"/>
    <path class="st1" d="M373.2 496.8a3.6 3.6 0 117.2 0 3.6 3.6 0 01-7.2 0zm60-48a3.6 3.6 0 117.2 0 3.6 3.6 0 01-7.2 0z"/>
    <path class="st1" d="M373.2 520.8a3.6 3.6 0 117.2 0 3.6 3.6 0 01-7.2 0zm0 24a3.6 3.6 0 117.2 0 3.6 3.6 0 01-7.2 0z"/>
    <path class="st1" d="M373.2 64.8a3.6 3.6 0 117.2 0 3.6 3.6 0 01-7.2 0zm36 48a3.6 3.6 0 117.2 0 3.6 3.6 0 01-7.2 0z"/>
    <path class="st1" d="M373.2 76.8a3.6 3.6 0 117.2 0 3.6 3.6 0 01-7.2 0zm120 120a3.6 3.6 0 117.2 0 3.6 3.6 0 01-7.2 0z"/>
    <path class="st1" d="M397.2 148.8a3.6 3.6 0 117.2 0 3.6 3.6 0 01-7.2 0zm24 12a3.6 3.6 0 117.2 0 3.6 3.6 0 01-7.2 0z"/>
    <path class="st1" d="M397.2 16.8a3.6 3.6 0 117.2 0 3.6 3.6 0 01-7.2 0zm12 48a3.6 3.6 0 117.2 0 3.6 3.6 0 01-7.2 0z"/>
    <path class="st1" d="M397.2 232.8a3.6 3.6 0 117.2 0 3.6 3.6 0 01-7.2 0zm216 204a3.6 3.6 0 117.2 0 3.6 3.6 0 01-7.2 0z"/>
    <path class="st1" d="M397.2 352.8a3.6 3.6 0 117.2 0 3.6 3.6 0 01-7.2 0zm24 0a3.6 3.6 0 117.2 0 3.6 3.6 0 01-7.2 0z"/>
    <path class="st1" d="M409.2 244.8a3.6 3.6 0 117.2 0 3.6 3.6 0 01-7.2 0zm108 300a3.6 3.6 0 117.2 0 3.6 3.6 0 01-7.2 0z"/>
    <path class="st1" d="M409.2 292.8a3.6 3.6 0 117.2 0 3.6 3.6 0 01-7.2 0zm-24-24a3.6 3.6 0 117.2 0 3.6 3.6 0 01-7.2 0z"/>
    <path class="st1" d="M409.2 4.8a3.6 3.6 0 117.2 0 3.6 3.6 0 01-7.2 0zm24 0a3.6 3.6 0 117.2 0 3.6 3.6 0 01-7.2 0z"/>
    <path class="st1" d="M409.2 424.8a3.6 3.6 0 117.2 0 3.6 3.6 0 01-7.2 0zm24-24a3.6 3.6 0 117.2 0 3.6 3.6 0 01-7.2 0z"/>
    <path class="st1" d="M409.2 520.8a3.6 3.6 0 117.2 0 3.6 3.6 0 01-7.2 0zm24-24a3.6 3.6 0 117.2 0 3.6 3.6 0 01-7.2 0z"/>
    <path class="st1" d="M421.2 16.8a3.6 3.6 0 117.2 0 3.6 3.6 0 01-7.2 0zm12 96a3.6 3.6 0 117.2 0 3.6 3.6 0 01-7.2 0z"/>
    <path class="st1" d="M421.2 220.8a3.6 3.6 0 117.2 0 3.6 3.6 0 01-7.2 0zm72 36a3.6 3.6 0 117.2 0 3.6 3.6 0 01-7.2 0z"/>
    <path class="st1" d="M421.2 28.8a3.6 3.6 0 117.2 0 3.6 3.6 0 01-7.2 0zm0 48a3.6 3.6 0 117.2 0 3.6 3.6 0 01-7.2 0z"/>
    <path class="st1" d="M433.2 256.8a3.6 3.6 0 117.2 0 3.6 3.6 0 01-7.2 0zm84 72a3.6 3.6 0 117.2 0 3.6 3.6 0 01-7.2 0z"/>
    <path class="st1" d="M433.2 328.8a3.6 3.6 0 117.2 0 3.6 3.6 0 01-7.2 0zm0 48a3.6 3.6 0 117.2 0 3.6 3.6 0 01-7.2 0z"/>
    <path class="st1" d="M445.2 196.8a3.6 3.6 0 117.2 0 3.6 3.6 0 01-7.2 0zm36 0a3.6 3.6 0 117.2 0 3.6 3.6 0 01-7.2 0z"/>
    <path class="st1" d="M445.2 448.8a3.6 3.6 0 117.2 0 3.6 3.6 0 01-7.2 0zm24 12a3.6 3.6 0 117.2 0 3.6 3.6 0 01-7.2 0z"/>
    <path class="st1" d="M445.2 496.8a3.6 3.6 0 117.2 0 3.6 3.6 0 01-7.2 0zm-48 48a3.6 3.6 0 117.2 0 3.6 3.6 0 01-7.2 0z"/>
    <path class="st1" d="M445.2 544.8a3.6 3.6 0 117.2 0 3.6 3.6 0 01-7.2 0zm24 0a3.6 3.6 0 117.2 0 3.6 3.6 0 01-7.2 0z"/>
    <path class="st1" d="M457.2 100.8a3.6 3.6 0 117.2 0 3.6 3.6 0 01-7.2 0zm0 24a3.6 3.6 0 117.2 0 3.6 3.6 0 01-7.2 0z"/>
    <path class="st1" d="M457.2 16.8a3.6 3.6 0 117.2 0 3.6 3.6 0 01-7.2 0zm12 24a3.6 3.6 0 117.2 0 3.6 3.6 0 01-7.2 0z"/>
    <path class="st1" d="M457.2 388.8a3.6 3.6 0 117.2 0 3.6 3.6 0 01-7.2 0zm-72 156a3.6 3.6 0 117.2 0 3.6 3.6 0 01-7.2 0z"/>
    <path class="st1" d="M457.2 4.8a3.6 3.6 0 117.2 0 3.6 3.6 0 01-7.2 0zm24 36a3.6 3.6 0 117.2 0 3.6 3.6 0 01-7.2 0z"/>
    <path class="st1" d="M457.2 52.8a3.6 3.6 0 117.2 0 3.6 3.6 0 01-7.2 0zm60-48a3.6 3.6 0 117.2 0 3.6 3.6 0 01-7.2 0z"/>
    <path class="st1" d="M457.2 532.8a3.6 3.6 0 117.2 0 3.6 3.6 0 01-7.2 0zm24 12a3.6 3.6 0 117.2 0 3.6 3.6 0 01-7.2 0z"/>
    <path class="st1" d="M469.2 232.8a3.6 3.6 0 117.2 0 3.6 3.6 0 01-7.2 0zm192 180a3.6 3.6 0 117.2 0 3.6 3.6 0 01-7.2 0z"/>
    <path class="st1" d="M469.2 340.8a3.6 3.6 0 117.2 0 3.6 3.6 0 01-7.2 0zm24 12a3.6 3.6 0 117.2 0 3.6 3.6 0 01-7.2 0z"/>
    <path class="st1" d="M469.2 352.8a3.6 3.6 0 117.2 0 3.6 3.6 0 01-7.2 0zm24 24a3.6 3.6 0 117.2 0 3.6 3.6 0 01-7.2 0z"/>
    <path class="st1" d="M469.2 412.8a3.6 3.6 0 117.2 0 3.6 3.6 0 01-7.2 0zm-12 24a3.6 3.6 0 117.2 0 3.6 3.6 0 01-7.2 0z"/>
    <path class="st1" d="M469.2 472.8a3.6 3.6 0 117.2 0 3.6 3.6 0 01-7.2 0zm-144 60a3.6 3.6 0 117.2 0 3.6 3.6 0 01-7.2 0z"/>
    <path class="st1" d="M469.2 520.8a3.6 3.6 0 117.2 0 3.6 3.6 0 01-7.2 0zm144-60a3.6 3.6 0 117.2 0 3.6 3.6 0 01-7.2 0z"/>
    <path class="st1" d="M469.2 64.8a3.6 3.6 0 117.2 0 3.6 3.6 0 01-7.2 0zm12 36a3.6 3.6 0 117.2 0 3.6 3.6 0 01-7.2 0z"/>
    <path class="st1" d="M481.2 64.8a3.6 3.6 0 117.2 0 3.6 3.6 0 01-7.2 0zm-24 0a3.6 3.6 0 117.2 0 3.6 3.6 0 01-7.2 0z"/>
    <path class="st1" d="M49.2 124.8a3.6 3.6 0 117.2 0 3.6 3.6 0 01-7.2 0zm24 0a3.6 3.6 0 117.2 0 3.6 3.6 0 01-7.2 0z"/>
    <path class="st1" d="M49.2 340.8a3.6 3.6 0 117.2 0 3.6 3.6 0 01-7.2 0zm24-12a3.6 3.6 0 117.2 0 3.6 3.6 0 01-7.2 0z"/>
    <path class="st1" d="M49.2 352.8a3.6 3.6 0 117.2 0 3.6 3.6 0 01-7.2 0zm48 48a3.6 3.6 0 117.2 0 3.6 3.6 0 01-7.2 0z"/>
    <path class="st1" d="M493.2 112.8a3.6 3.6 0 117.2 0 3.6 3.6 0 01-7.2 0zm24 12a3.6 3.6 0 117.2 0 3.6 3.6 0 01-7.2 0z"/>
    <path class="st1" d="M493.2 148.8a3.6 3.6 0 117.2 0 3.6 3.6 0 01-7.2 0zm72-12a3.6 3.6 0 117.2 0 3.6 3.6 0 01-7.2 0z"/>
    <path class="st1" d="M493.2 184.8a3.6 3.6 0 117.2 0 3.6 3.6 0 01-7.2 0zm84-24a3.6 3.6 0 117.2 0 3.6 3.6 0 01-7.2 0z"/>
    <path class="st1" d="M493.2 220.8a3.6 3.6 0 117.2 0 3.6 3.6 0 01-7.2 0zm0 48a3.6 3.6 0 117.2 0 3.6 3.6 0 01-7.2 0z"/>
    <path class="st1" d="M493.2 364.8a3.6 3.6 0 117.2 0 3.6 3.6 0 01-7.2 0zm24 12a3.6 3.6 0 117.2 0 3.6 3.6 0 01-7.2 0z"/>
    <path class="st1" d="M493.2 412.8a3.6 3.6 0 117.2 0 3.6 3.6 0 01-7.2 0zm0 36a3.6 3.6 0 117.2 0 3.6 3.6 0 01-7.2 0z"/>
    <path class="st1" d="M493.2 460.8a3.6 3.6 0 117.2 0 3.6 3.6 0 01-7.2 0zm0 24a3.6 3.6 0 117.2 0 3.6 3.6 0 01-7.2 0z"/>
    <path class="st1" d="M493.2 532.8a3.6 3.6 0 117.2 0 3.6 3.6 0 01-7.2 0zm-108-312a3.6 3.6 0 117.2 0 3.6 3.6 0 01-7.2 0z"/>
    <path class="st1" d="M493.2 88.8a3.6 3.6 0 117.2 0 3.6 3.6 0 01-7.2 0zm24 24a3.6 3.6 0 117.2 0 3.6 3.6 0 01-7.2 0z"/>
    <path class="st1" d="M505.2 196.8a3.6 3.6 0 117.2 0 3.6 3.6 0 01-7.2 0zm192-192a3.6 3.6 0 117.2 0 3.6 3.6 0 01-7.2 0z"/>
    <path class="st1" d="M505.2 268.8a3.6 3.6 0 117.2 0 3.6 3.6 0 01-7.2 0zm48 36a3.6 3.6 0 117.2 0 3.6 3.6 0 01-7.2 0z"/>
    <path class="st1" d="M505.2 436.8a3.6 3.6 0 117.2 0 3.6 3.6 0 01-7.2 0zm-24-24a3.6 3.6 0 117.2 0 3.6 3.6 0 01-7.2 0z"/>
    <path class="st1" d="M505.2 448.8a3.6 3.6 0 117.2 0 3.6 3.6 0 01-7.2 0zm12 24a3.6 3.6 0 117.2 0 3.6 3.6 0 01-7.2 0z"/>
    <path class="st1" d="M505.2 52.8a3.6 3.6 0 117.2 0 3.6 3.6 0 01-7.2 0zm84 12a3.6 3.6 0 117.2 0 3.6 3.6 0 01-7.2 0z"/>
    <path class="st1" d="M505.2 76.8a3.6 3.6 0 117.2 0 3.6 3.6 0 01-7.2 0zm72 0a3.6 3.6 0 117.2 0 3.6 3.6 0 01-7.2 0z"/>
    <path class="st1" d="M517.2 244.8a3.6 3.6 0 117.2 0 3.6 3.6 0 01-7.2 0zm180 12a3.6 3.6 0 117.2 0 3.6 3.6 0 01-7.2 0z"/>
    <path class="st1" d="M517.2 340.8a3.6 3.6 0 117.2 0 3.6 3.6 0 01-7.2 0zm84 72a3.6 3.6 0 117.2 0 3.6 3.6 0 01-7.2 0z"/>
    <path class="st1" d="M517.2 412.8a3.6 3.6 0 117.2 0 3.6 3.6 0 01-7.2 0zm12 36a3.6 3.6 0 117.2 0 3.6 3.6 0 01-7.2 0z"/>
    <path class="st1" d="M529.2 100.8a3.6 3.6 0 117.2 0 3.6 3.6 0 01-7.2 0zm72-96a3.6 3.6 0 117.2 0 3.6 3.6 0 01-7.2 0z"/>
    <path class="st1" d="M529.2 220.8a3.6 3.6 0 117.2 0 3.6 3.6 0 01-7.2 0zm24 24a3.6 3.6 0 117.2 0 3.6 3.6 0 01-7.2 0z"/>
    <path class="st1" d="M529.2 28.8a3.6 3.6 0 117.2 0 3.6 3.6 0 01-7.2 0zm60 24a3.6 3.6 0 117.2 0 3.6 3.6 0 01-7.2 0z"/>
    <path class="st1" d="M541.2 220.8a3.6 3.6 0 117.2 0 3.6 3.6 0 01-7.2 0zm24 24a3.6 3.6 0 117.2 0 3.6 3.6 0 01-7.2 0z"/>
    <path class="st1" d="M541.2 268.8a3.6 3.6 0 117.2 0 3.6 3.6 0 01-7.2 0zm24 24a3.6 3.6 0 117.2 0 3.6 3.6 0 01-7.2 0z"/>
    <path class="st1" d="M541.2 280.8a3.6 3.6 0 117.2 0 3.6 3.6 0 01-7.2 0zm48 252a3.6 3.6 0 117.2 0 3.6 3.6 0 01-7.2 0z"/>
    <path class="st1" d="M541.2 328.8a3.6 3.6 0 117.2 0 3.6 3.6 0 01-7.2 0zm84 120a3.6 3.6 0 117.2 0 3.6 3.6 0 01-7.2 0z"/>
    <path class="st1" d="M553.2 268.8a3.6 3.6 0 117.2 0 3.6 3.6 0 01-7.2 0zm24 12a3.6 3.6 0 117.2 0 3.6 3.6 0 01-7.2 0z"/>
    <path class="st1" d="M553.2 4.8a3.6 3.6 0 117.2 0 3.6 3.6 0 01-7.2 0zm0 36a3.6 3.6 0 117.2 0 3.6 3.6 0 01-7.2 0z"/>
    <path class="st1" d="M553.2 88.8a3.6 3.6 0 117.2 0 3.6 3.6 0 01-7.2 0zm36-12a3.6 3.6 0 117.2 0 3.6 3.6 0 01-7.2 0z"/>
    <path class="st1" d="M565.2 220.8a3.6 3.6 0 117.2 0 3.6 3.6 0 01-7.2 0zm12 24a3.6 3.6 0 117.2 0 3.6 3.6 0 01-7.2 0z"/>
    <path class="st1" d="M565.2 328.8a3.6 3.6 0 117.2 0 3.6 3.6 0 01-7.2 0zm24 24a3.6 3.6 0 117.2 0 3.6 3.6 0 01-7.2 0z"/>
    <path class="st1" d="M565.2 424.8a3.6 3.6 0 117.2 0 3.6 3.6 0 01-7.2 0zm0 36a3.6 3.6 0 117.2 0 3.6 3.6 0 01-7.2 0z"/>
    <path class="st1" d="M565.2 544.8a3.6 3.6 0 117.2 0 3.6 3.6 0 01-7.2 0zm72-48a3.6 3.6 0 117.2 0 3.6 3.6 0 01-7.2 0z"/>
    <path class="st1" d="M577.2 148.8a3.6 3.6 0 117.2 0 3.6 3.6 0 01-7.2 0zm72-96a3.6 3.6 0 117.2 0 3.6 3.6 0 01-7.2 0z"/>
    <path class="st1" d="M577.2 268.8a3.6 3.6 0 117.2 0 3.6 3.6 0 01-7.2 0zm12 36a3.6 3.6 0 117.2 0 3.6 3.6 0 01-7.2 0z"/>
    <path class="st1" d="M577.2 484.8a3.6 3.6 0 117.2 0 3.6 3.6 0 01-7.2 0zm0 24a3.6 3.6 0 117.2 0 3.6 3.6 0 01-7.2 0z"/>
    <path class="st1" d="M589.2 148.8a3.6 3.6 0 117.2 0 3.6 3.6 0 01-7.2 0zm24 12a3.6 3.6 0 117.2 0 3.6 3.6 0 01-7.2 0z"/>
    <path class="st1" d="M589.2 220.8a3.6 3.6 0 117.2 0 3.6 3.6 0 01-7.2 0zm72 24a3.6 3.6 0 117.2 0 3.6 3.6 0 01-7.2 0z"/>
    <path class="st1" d="M589.2 364.8a3.6 3.6 0 117.2 0 3.6 3.6 0 01-7.2 0zm60 60a3.6 3.6 0 117.2 0 3.6 3.6 0 01-7.2 0z"/>
    <path class="st1" d="M589.2 484.8a3.6 3.6 0 117.2 0 3.6 3.6 0 01-7.2 0zm-36 24a3.6 3.6 0 117.2 0 3.6 3.6 0 01-7.2 0z"/>
    <path class="st1" d="M601.2 280.8a3.6 3.6 0 117.2 0 3.6 3.6 0 01-7.2 0zm48-12a3.6 3.6 0 117.2 0 3.6 3.6 0 01-7.2 0z"/>
    <path class="st1" d="M601.2 304.8a3.6 3.6 0 117.2 0 3.6 3.6 0 01-7.2 0zm84-12a3.6 3.6 0 117.2 0 3.6 3.6 0 01-7.2 0z"/>
    <path class="st1" d="M601.2 328.8a3.6 3.6 0 117.2 0 3.6 3.6 0 01-7.2 0zm48 0a3.6 3.6 0 117.2 0 3.6 3.6 0 01-7.2 0z"/>
    <path class="st1" d="M61.2 136.8a3.6 3.6 0 117.2 0 3.6 3.6 0 01-7.2 0zm-24-132a3.6 3.6 0 117.2 0 3.6 3.6 0 01-7.2 0z"/>
    <path class="st1" d="M61.2 16.8a3.6 3.6 0 117.2 0 3.6 3.6 0 01-7.2 0zm24 36a3.6 3.6 0 117.2 0 3.6 3.6 0 01-7.2 0z"/>
    <path class="st1" d="M61.2 184.8a3.6 3.6 0 117.2 0 3.6 3.6 0 01-7.2 0zm-60 48a3.6 3.6 0 117.2 0 3.6 3.6 0 01-7.2 0z"/>
    <path class="st1" d="M61.2 292.8a3.6 3.6 0 117.2 0 3.6 3.6 0 01-7.2 0zm24 12a3.6 3.6 0 117.2 0 3.6 3.6 0 01-7.2 0z"/>
    <path class="st1" d="M61.2 304.8a3.6 3.6 0 117.2 0 3.6 3.6 0 01-7.2 0zm48 36a3.6 3.6 0 117.2 0 3.6 3.6 0 01-7.2 0z"/>
    <path class="st1" d="M61.2 40.8a3.6 3.6 0 117.2 0 3.6 3.6 0 01-7.2 0zm0 24a3.6 3.6 0 117.2 0 3.6 3.6 0 01-7.2 0z"/>
    <path class="st1" d="M613.2 232.8a3.6 3.6 0 117.2 0 3.6 3.6 0 01-7.2 0zm48 0a3.6 3.6 0 117.2 0 3.6 3.6 0 01-7.2 0z"/>
    <path class="st1" d="M613.2 364.8a3.6 3.6 0 117.2 0 3.6 3.6 0 01-7.2 0zm-24-36a3.6 3.6 0 117.2 0 3.6 3.6 0 01-7.2 0z"/>
    <path class="st1" d="M613.2 4.8a3.6 3.6 0 117.2 0 3.6 3.6 0 01-7.2 0zm12 24a3.6 3.6 0 117.2 0 3.6 3.6 0 01-7.2 0z"/>
    <path class="st1" d="M613.2 64.8a3.6 3.6 0 117.2 0 3.6 3.6 0 01-7.2 0zm-168-60a3.6 3.6 0 117.2 0 3.6 3.6 0 01-7.2 0z"/>
    <path class="st1" d="M637.2 112.8a3.6 3.6 0 117.2 0 3.6 3.6 0 01-7.2 0zm0 24a3.6 3.6 0 117.2 0 3.6 3.6 0 01-7.2 0z"/>
    <path class="st1" d="M637.2 220.8a3.6 3.6 0 117.2 0 3.6 3.6 0 01-7.2 0zm24 0a3.6 3.6 0 117.2 0 3.6 3.6 0 01-7.2 0z"/>
    <path class="st1" d="M637.2 304.8a3.6 3.6 0 117.2 0 3.6 3.6 0 01-7.2 0zm60 24a3.6 3.6 0 117.2 0 3.6 3.6 0 01-7.2 0z"/>
    <path class="st1" d="M637.2 364.8a3.6 3.6 0 117.2 0 3.6 3.6 0 01-7.2 0zm36-24a3.6 3.6 0 117.2 0 3.6 3.6 0 01-7.2 0z"/>
    <path class="st1" d="M637.2 4.8a3.6 3.6 0 117.2 0 3.6 3.6 0 01-7.2 0zm24 0a3.6 3.6 0 117.2 0 3.6 3.6 0 01-7.2 0z"/>
    <path class="st1" d="M637.2 544.8a3.6 3.6 0 117.2 0 3.6 3.6 0 01-7.2 0zm24-12a3.6 3.6 0 117.2 0 3.6 3.6 0 01-7.2 0z"/>
    <path class="st1" d="M649.2 160.8a3.6 3.6 0 117.2 0 3.6 3.6 0 01-7.2 0zm24-36a3.6 3.6 0 117.2 0 3.6 3.6 0 01-7.2 0z"/>
    <path class="st1" d="M649.2 196.8a3.6 3.6 0 117.2 0 3.6 3.6 0 01-7.2 0zm24 48a3.6 3.6 0 117.2 0 3.6 3.6 0 01-7.2 0z"/>
    <path class="st1" d="M649.2 448.8a3.6 3.6 0 117.2 0 3.6 3.6 0 01-7.2 0zm24 36a3.6 3.6 0 117.2 0 3.6 3.6 0 01-7.2 0z"/>
    <path class="st1" d="M649.2 472.8a3.6 3.6 0 117.2 0 3.6 3.6 0 01-7.2 0zm24 36a3.6 3.6 0 117.2 0 3.6 3.6 0 01-7.2 0z"/>
    <path class="st1" d="M649.2 496.8a3.6 3.6 0 117.2 0 3.6 3.6 0 01-7.2 0zm48 60a3.6 3.6 0 117.2 0 3.6 3.6 0 01-7.2 0z"/>
    <path class="st1" d="M649.2 508.8a3.6 3.6 0 117.2 0 3.6 3.6 0 01-7.2 0zm36 36a3.6 3.6 0 117.2 0 3.6 3.6 0 01-7.2 0z"/>
    <path class="st1" d="M649.2 64.8a3.6 3.6 0 117.2 0 3.6 3.6 0 01-7.2 0zm0 48a3.6 3.6 0 117.2 0 3.6 3.6 0 01-7.2 0z"/>
    <path class="st1" d="M661.2 172.8a3.6 3.6 0 117.2 0 3.6 3.6 0 01-7.2 0zm0 24a3.6 3.6 0 117.2 0 3.6 3.6 0 01-7.2 0z"/>
    <path class="st1" d="M661.2 280.8a3.6 3.6 0 117.2 0 3.6 3.6 0 01-7.2 0zm24 24a3.6 3.6 0 117.2 0 3.6 3.6 0 01-7.2 0z"/>
    <path class="st1" d="M661.2 544.8a3.6 3.6 0 117.2 0 3.6 3.6 0 01-7.2 0zm24 12a3.6 3.6 0 117.2 0 3.6 3.6 0 01-7.2 0z"/>
    <path class="st1" d="M673.2 16.8a3.6 3.6 0 117.2 0 3.6 3.6 0 01-7.2 0zm24 0a3.6 3.6 0 117.2 0 3.6 3.6 0 01-7.2 0z"/>
    <path class="st1" d="M673.2 160.8a3.6 3.6 0 117.2 0 3.6 3.6 0 01-7.2 0zm0 48a3.6 3.6 0 117.2 0 3.6 3.6 0 01-7.2 0z"/>
    <path class="st1" d="M673.2 364.8a3.6 3.6 0 117.2 0 3.6 3.6 0 01-7.2 0zm-36 12a3.6 3.6 0 117.2 0 3.6 3.6 0 01-7.2 0z"/>
    <path class="st1" d="M673.2 40.8a3.6 3.6 0 117.2 0 3.6 3.6 0 01-7.2 0zm12 24a3.6 3.6 0 117.2 0 3.6 3.6 0 01-7.2 0z"/>
    <path class="st1" d="M673.2 424.8a3.6 3.6 0 117.2 0 3.6 3.6 0 01-7.2 0zm24-24a3.6 3.6 0 117.2 0 3.6 3.6 0 01-7.2 0z"/>
    <path class="st1" d="M673.2 436.8a3.6 3.6 0 117.2 0 3.6 3.6 0 01-7.2 0zm24 96a3.6 3.6 0 117.2 0 3.6 3.6 0 01-7.2 0z"/>
    <path class="st1" d="M673.2 460.8a3.6 3.6 0 117.2 0 3.6 3.6 0 01-7.2 0zm12 60a3.6 3.6 0 117.2 0 3.6 3.6 0 01-7.2 0z"/>
    <path class="st1" d="M685.2 268.8a3.6 3.6 0 117.2 0 3.6 3.6 0 01-7.2 0zm12 48a3.6 3.6 0 117.2 0 3.6 3.6 0 01-7.2 0z"/>
    <path class="st1" d="M685.2 28.8a3.6 3.6 0 117.2 0 3.6 3.6 0 01-7.2 0zm0 216a3.6 3.6 0 117.2 0 3.6 3.6 0 01-7.2 0z"/>
    <path class="st1" d="M697.2 100.8a3.6 3.6 0 117.2 0 3.6 3.6 0 01-7.2 0zm0 36a3.6 3.6 0 117.2 0 3.6 3.6 0 01-7.2 0z"/>
    <path class="st1" d="M697.2 148.8a3.6 3.6 0 117.2 0 3.6 3.6 0 01-7.2 0zm0 96a3.6 3.6 0 117.2 0 3.6 3.6 0 01-7.2 0z"/>
    <path class="st1" d="M73.2 256.8a3.6 3.6 0 117.2 0 3.6 3.6 0 01-7.2 0zm-60 60a3.6 3.6 0 117.2 0 3.6 3.6 0 01-7.2 0z"/>
    <path class="st1" d="M73.2 280.8a3.6 3.6 0 117.2 0 3.6 3.6 0 01-7.2 0zm36 36a3.6 3.6 0 117.2 0 3.6 3.6 0 01-7.2 0z"/>
    <path class="st1" d="M73.2 352.8a3.6 3.6 0 117.2 0 3.6 3.6 0 01-7.2 0zm36 36a3.6 3.6 0 117.2 0 3.6 3.6 0 01-7.2 0z"/>
    <path class="st1" d="M73.2 448.8a3.6 3.6 0 117.2 0 3.6 3.6 0 01-7.2 0zm48 72a3.6 3.6 0 117.2 0 3.6 3.6 0 01-7.2 0z"/>
    <path class="st1" d="M73.2 472.8a3.6 3.6 0 117.2 0 3.6 3.6 0 01-7.2 0zm36 48a3.6 3.6 0 117.2 0 3.6 3.6 0 01-7.2 0z"/>
    <path class="st1" d="M73.2 484.8a3.6 3.6 0 117.2 0 3.6 3.6 0 01-7.2 0zm-12 24a3.6 3.6 0 117.2 0 3.6 3.6 0 01-7.2 0z"/>
    <path class="st1" d="M73.2 52.8a3.6 3.6 0 117.2 0 3.6 3.6 0 01-7.2 0zm24 12a3.6 3.6 0 117.2 0 3.6 3.6 0 01-7.2 0z"/>
    <path class="st1" d="M85.2 124.8a3.6 3.6 0 117.2 0 3.6 3.6 0 01-7.2 0zm0 24a3.6 3.6 0 117.2 0 3.6 3.6 0 01-7.2 0z"/>
    <path class="st1" d="M85.2 340.8a3.6 3.6 0 117.2 0 3.6 3.6 0 01-7.2 0zm96 12a3.6 3.6 0 117.2 0 3.6 3.6 0 01-7.2 0z"/>
    <path class="st1" d="M85.2 376.8a3.6 3.6 0 117.2 0 3.6 3.6 0 01-7.2 0zm132 132a3.6 3.6 0 117.2 0 3.6 3.6 0 01-7.2 0z"/>
    <path class="st1" d="M85.2 496.8a3.6 3.6 0 117.2 0 3.6 3.6 0 01-7.2 0zm12 24a3.6 3.6 0 117.2 0 3.6 3.6 0 01-7.2 0z"/>
    <path class="st1" d="M85.2 544.8a3.6 3.6 0 117.2 0 3.6 3.6 0 01-7.2 0zm24 0a3.6 3.6 0 117.2 0 3.6 3.6 0 01-7.2 0z"/>
    <path class="st1" d="M85.2 76.8a3.6 3.6 0 117.2 0 3.6 3.6 0 01-7.2 0zm24 0a3.6 3.6 0 117.2 0 3.6 3.6 0 01-7.2 0z"/>
    <path class="st1" d="M97.2 472.8a3.6 3.6 0 117.2 0 3.6 3.6 0 01-7.2 0zm12 24a3.6 3.6 0 117.2 0 3.6 3.6 0 01-7.2 0z"/>
    <path class="st1" d="M97.2 52.8a3.6 3.6 0 117.2 0 3.6 3.6 0 01-7.2 0zm276 276a3.6 3.6 0 117.2 0 3.6 3.6 0 01-7.2 0z"/>
  </g>
</svg>
