<svg
    id="logo_svg__Wordmark"
    xmlns="http://www.w3.org/2000/svg"
    viewBox="0 0 2360 653.595"
    width="150px"
>
    <defs>
        <style>.logo_svg__cls-1{fill:#48d597}</style>
    </defs>
    <path class="logo_svg__cls-1" d="M447.8 306.042v54.76c0 177.53-75.075 292.793-223.9 292.793S0 538.332 0 360.802v-54.76C0 128.512 75.075 13.249 223.458 13.249c149.267 0 224.342 115.263 224.342 292.793zm-370.517 54.76c0 32.547 2.605 61.888 7.728 87.811l262.366-281.381c-23.574-56.527-65.201-86.857-123.477-86.857-95.39 0-146.617 81.257-146.617 225.667zm292.793-54.752c0-28.837-2.023-55.158-6.024-78.81L103.33 506.853c24.174 51.872 64.83 79.614 120.57 79.614 95.39 0 146.176-81.257 146.176-225.666zM908.848 198.729c1.766-2.208 5.3-2.208 7.507-.442l43.279 40.629c2.208 1.766 2.208 5.3.442 7.507L797.56 419.537l162.516 173.115c1.766 2.208 1.766 5.74-.442 7.507l-43.279 40.628c-2.208 1.767-5.74 1.767-7.507-.44L750.749 469.881 592.208 640.346c-1.767 2.208-5.3 2.208-7.508.441l-43.278-40.628c-2.208-1.766-2.208-5.3-.442-7.507l162.515-173.115L540.98 246.423c-1.766-2.208-1.766-5.741.441-7.508l43.279-40.628c2.208-1.766 5.741-1.766 7.508.442l158.541 170.464zM1048.834 582.052q0-5.3 5.3-5.3h131.602v-314.43h-113.937a5.091 5.091 0 01-5.3-5.3v-52.994q0-5.3 5.3-5.3h183.713a5.09 5.09 0 015.299 5.3v372.725h130.719a5.09 5.09 0 015.299 5.3v52.994q0 5.3-5.299 5.3h-337.396q-5.3 0-5.3-5.3zm215.51-485.78q0 5.3-5.299 5.3h-86.557q-5.3 0-5.3-5.3V9.716q0-5.3 5.3-5.3h86.557q5.298 0 5.299 5.3zM1839.33 0a5.7 5.7 0 015.3 5.3v629.747a5.7 5.7 0 01-5.3 5.3h-60.06a5.7 5.7 0 01-5.3-5.3v-71.543c-30.912 53.878-76.84 87.441-153.682 87.441-106.871 0-186.362-92.74-186.362-232.291 0-138.668 83.906-230.525 197.844-230.525 64.476 0 111.288 30.03 137.785 73.309V5.3a5.7 5.7 0 015.3-5.3zm-68.008 410.705c0-95.39-51.228-156.333-128.07-156.333-80.374 0-129.835 61.827-129.835 164.282s48.578 166.048 127.186 166.048 130.719-61.826 130.719-158.099zM2360 438.968h-320.614c1.766 83.024 50.343 145.734 131.602 145.734 59.176 0 97.155-33.562 121.003-74.192q2.65-5.3 7.949-2.649l52.994 30.03c3.533 1.767 4.416 5.299 1.766 8.832-41.512 68.009-98.921 104.222-180.18 104.222-138.667 0-211.976-95.39-211.976-240.24 0-135.135 83.024-222.576 206.677-222.576C2304.356 188.13 2360 289.702 2360 398.34zm-75.958-61.826c0-70.659-38.863-130.719-118.354-130.719-80.375 0-124.536 66.243-126.302 130.719z">
    </path>
</svg>